<svg id="visual" viewBox="0 0 900 600" width="900" height="600" xmlns="http://www.w3.org/2000/svg" xmlns:xlink="http://www.w3.org/1999/xlink" version="1.1"><rect x="0" y="0" width="900" height="600" fill="#001220"></rect><path d="M0 398L21.5 401C43 404 86 410 128.8 416.8C171.7 423.7 214.3 431.3 257.2 428.8C300 426.3 343 413.7 385.8 406.7C428.7 399.7 471.3 398.3 514.2 398.5C557 398.7 600 400.3 642.8 407.8C685.7 415.3 728.3 428.7 771.2 435.8C814 443 857 444 878.5 444.5L900 445L900 601L878.5 601C857 601 814 601 771.2 601C728.3 601 685.7 601 642.8 601C600 601 557 601 514.2 601C471.3 601 428.7 601 385.8 601C343 601 300 601 257.2 601C214.3 601 171.7 601 128.8 601C86 601 43 601 21.5 601L0 601Z" fill="#fa7268"></path><path d="M0 461L21.5 461.2C43 461.3 86 461.7 128.8 457.5C171.7 453.3 214.3 444.7 257.2 447.3C300 450 343 464 385.8 470.5C428.7 477 471.3 476 514.2 468.8C557 461.7 600 448.3 642.8 438C685.7 427.7 728.3 420.3 771.2 427.5C814 434.7 857 456.3 878.5 467.2L900 478L900 601L878.5 601C857 601 814 601 771.2 601C728.3 601 685.7 601 642.8 601C600 601 557 601 514.2 601C471.3 601 428.7 601 385.8 601C343 601 300 601 257.2 601C214.3 601 171.7 601 128.8 601C86 601 43 601 21.5 601L0 601Z" fill="#ef5f67"></path><path d="M0 461L21.5 469.3C43 477.7 86 494.3 128.8 493.2C171.7 492 214.3 473 257.2 466.3C300 459.7 343 465.3 385.8 471.5C428.7 477.7 471.3 484.3 514.2 479.7C557 475 600 459 642.8 460C685.7 461 728.3 479 771.2 483.3C814 487.7 857 478.3 878.5 473.7L900 469L900 601L878.5 601C857 601 814 601 771.2 601C728.3 601 685.7 601 642.8 601C600 601 557 601 514.2 601C471.3 601 428.7 601 385.8 601C343 601 300 601 257.2 601C214.3 601 171.7 601 128.8 601C86 601 43 601 21.5 601L0 601Z" fill="#e34c67"></path><path d="M0 510L21.5 514.8C43 519.7 86 529.3 128.8 533.8C171.7 538.3 214.3 537.7 257.2 535.5C300 533.3 343 529.7 385.8 530.3C428.7 531 471.3 536 514.2 535.5C557 535 600 529 642.8 527.8C685.7 526.7 728.3 530.3 771.2 525.3C814 520.3 857 506.7 878.5 499.8L900 493L900 601L878.5 601C857 601 814 601 771.2 601C728.3 601 685.7 601 642.8 601C600 601 557 601 514.2 601C471.3 601 428.7 601 385.8 601C343 601 300 601 257.2 601C214.3 601 171.7 601 128.8 601C86 601 43 601 21.5 601L0 601Z" fill="#d53867"></path><path d="M0 555L21.5 553.7C43 552.3 86 549.7 128.8 545.3C171.7 541 214.3 535 257.2 532.3C300 529.7 343 530.3 385.8 533.2C428.7 536 471.3 541 514.2 543.8C557 546.7 600 547.3 642.8 549.2C685.7 551 728.3 554 771.2 556.7C814 559.3 857 561.7 878.5 562.8L900 564L900 601L878.5 601C857 601 814 601 771.2 601C728.3 601 685.7 601 642.8 601C600 601 557 601 514.2 601C471.3 601 428.7 601 385.8 601C343 601 300 601 257.2 601C214.3 601 171.7 601 128.8 601C86 601 43 601 21.5 601L0 601Z" fill="#c62368"></path></svg>