<svg id="visual" viewBox="0 0 900 600" width="900" height="600" xmlns="http://www.w3.org/2000/svg" xmlns:xlink="http://www.w3.org/1999/xlink" version="1.1"><rect x="0" y="0" width="900" height="600" fill="#001220"></rect><path d="M0 200L21.5 197C43 194 86 188 128.8 181.2C171.7 174.3 214.3 166.7 257.2 169.2C300 171.7 343 184.3 385.8 191.3C428.7 198.3 471.3 199.7 514.2 199.5C557 199.3 600 197.7 642.8 190.2C685.7 182.7 728.3 169.3 771.2 162.2C814 155 857 154 878.5 153.5L900 153L900 0L878.5 0C857 0 814 0 771.2 0C728.3 0 685.7 0 642.8 0C600 0 557 0 514.2 0C471.3 0 428.7 0 385.8 0C343 0 300 0 257.2 0C214.3 0 171.7 0 128.8 0C86 0 43 0 21.5 0L0 0Z" fill="#fa7268"></path><path d="M0 137L21.5 136.8C43 136.7 86 136.3 128.8 140.5C171.7 144.7 214.3 153.3 257.2 150.7C300 148 343 134 385.8 127.5C428.7 121 471.3 122 514.2 129.2C557 136.3 600 149.7 642.8 160C685.7 170.3 728.3 177.7 771.2 170.5C814 163.3 857 141.7 878.5 130.8L900 120L900 0L878.5 0C857 0 814 0 771.2 0C728.3 0 685.7 0 642.8 0C600 0 557 0 514.2 0C471.3 0 428.7 0 385.8 0C343 0 300 0 257.2 0C214.3 0 171.7 0 128.8 0C86 0 43 0 21.5 0L0 0Z" fill="#ef5f67"></path><path d="M0 137L21.5 128.7C43 120.3 86 103.7 128.8 104.8C171.7 106 214.3 125 257.2 131.7C300 138.3 343 132.7 385.8 126.5C428.7 120.3 471.3 113.7 514.2 118.3C557 123 600 139 642.8 138C685.7 137 728.3 119 771.2 114.7C814 110.3 857 119.7 878.5 124.3L900 129L900 0L878.5 0C857 0 814 0 771.2 0C728.3 0 685.7 0 642.8 0C600 0 557 0 514.2 0C471.3 0 428.7 0 385.8 0C343 0 300 0 257.2 0C214.3 0 171.7 0 128.8 0C86 0 43 0 21.5 0L0 0Z" fill="#e34c67"></path><path d="M0 88L21.5 83.2C43 78.3 86 68.7 128.8 64.2C171.7 59.7 214.3 60.3 257.2 62.5C300 64.7 343 68.3 385.8 67.7C428.7 67 471.3 62 514.2 62.5C557 63 600 69 642.8 70.2C685.7 71.3 728.3 67.7 771.2 72.7C814 77.7 857 91.3 878.5 98.2L900 105L900 0L878.5 0C857 0 814 0 771.2 0C728.3 0 685.7 0 642.8 0C600 0 557 0 514.2 0C471.3 0 428.7 0 385.8 0C343 0 300 0 257.2 0C214.3 0 171.7 0 128.8 0C86 0 43 0 21.5 0L0 0Z" fill="#d53867"></path><path d="M0 43L21.5 44.3C43 45.7 86 48.3 128.8 52.7C171.7 57 214.3 63 257.2 65.7C300 68.3 343 67.7 385.8 64.8C428.7 62 471.3 57 514.2 54.2C557 51.3 600 50.7 642.8 48.8C685.7 47 728.3 44 771.2 41.3C814 38.7 857 36.3 878.5 35.2L900 34L900 0L878.5 0C857 0 814 0 771.2 0C728.3 0 685.7 0 642.8 0C600 0 557 0 514.2 0C471.3 0 428.7 0 385.8 0C343 0 300 0 257.2 0C214.3 0 171.7 0 128.8 0C86 0 43 0 21.5 0L0 0Z" fill="#c62368"></path></svg>